/* XPM */
static char * bb_xpm[] = {
"32 32 325 2",
"  	c None",
". 	c #B37A47",
"+ 	c #B97F4C",
"@ 	c #B07A48",
"# 	c #A57243",
"$ 	c #946439",
"% 	c #875A31",
"& 	c #AF7744",
"* 	c #C08652",
"= 	c #D29660",
"- 	c #DB9E67",
"; 	c #D59963",
"> 	c #C18957",
", 	c #AB7849",
"' 	c #95663B",
") 	c #7F5229",
"! 	c #8D5F34",
"~ 	c #815730",
"{ 	c #B87F4B",
"] 	c #DBA97B",
"^ 	c #E8C19C",
"/ 	c #E8BF98",
"( 	c #E1B082",
"_ 	c #CC9561",
": 	c #AA7749",
"< 	c #94653B",
"[ 	c #7D5026",
"} 	c #936133",
"| 	c #C89567",
"1 	c #CA9361",
"2 	c #78502B",
"3 	c #B47F50",
"4 	c #E5C6A9",
"5 	c #D3B496",
"6 	c #C4986E",
"7 	c #C18F60",
"8 	c #C89361",
"9 	c #CF965F",
"0 	c #B77D45",
"a 	c #7F532A",
"b 	c #976435",
"c 	c #C48B57",
"d 	c #CE945F",
"e 	c #BF956E",
"f 	c #7C5128",
"g 	c #AB7D52",
"h 	c #9F6D3D",
"i 	c #CE9E63",
"j 	c #E3B679",
"k 	c #E4B575",
"l 	c #CF9856",
"m 	c #B97B39",
"n 	c #B46F2E",
"o 	c #AD6B2C",
"p 	c #D29C68",
"q 	c #D4A274",
"r 	c #A8713F",
"s 	c #966D46",
"t 	c #745232",
"u 	c #8D5725",
"v 	c #D3A874",
"w 	c #FCDCAA",
"x 	c #FBDAA4",
"y 	c #FBD599",
"z 	c #FBCF8B",
"A 	c #FACA7D",
"B 	c #E1AA60",
"C 	c #C79255",
"D 	c #CA9D71",
"E 	c #825022",
"F 	c #7D5632",
"G 	c #755638",
"H 	c #5C3C1E",
"I 	c #905927",
"J 	c #F5D9AF",
"K 	c #FCE6C2",
"L 	c #FCE2B9",
"M 	c #FBD598",
"N 	c #FACE86",
"O 	c #F9C779",
"P 	c #EDB668",
"Q 	c #985F29",
"R 	c #804D1E",
"S 	c #7A512B",
"T 	c #806246",
"U 	c #593A1D",
"V 	c #976230",
"W 	c #F0D7B5",
"X 	c #FDEFD9",
"Y 	c #FDEFDA",
"Z 	c #FDE9CB",
"` 	c #FCE1B7",
" .	c #FBD9A2",
"..	c #FBD08D",
"+.	c #FAC97D",
"@.	c #F5C071",
"#.	c #A1672C",
"$.	c #824E1E",
"%.	c #7B512B",
"&.	c #57391C",
"*.	c #C6853B",
"=.	c #FDECD1",
"-.	c #FEF5E8",
";.	c #FEF6E9",
">.	c #FDEDD3",
",.	c #FCE3BC",
"'.	c #FCDAA5",
").	c #FBD190",
"!.	c #FACA7E",
"~.	c #F6C173",
"{.	c #A66D31",
"].	c #79512B",
"^.	c #745538",
"/.	c #DB933E",
"(.	c #F4D4A9",
"_.	c #FDF0DA",
":.	c #FDF0DB",
"<.	c #FDEACC",
"[.	c #FBD18E",
"}.	c #DA9F54",
"|.	c #C88A43",
"1.	c #83582F",
"2.	c #6D4E31",
"3.	c #F0C58D",
"4.	c #FCE6C3",
"5.	c #FCE7C4",
"6.	c #FCE3BA",
"7.	c #FCDDAB",
"8.	c #FACE87",
"9.	c #F9C87A",
"0.	c #F3BD6D",
"a.	c #E7A855",
"b.	c #D88F3B",
"c.	c #875A2D",
"d.	c #5E3E20",
"e.	c #E7AE66",
"f.	c #FCDDAC",
"g.	c #FBDAA6",
"h.	c #FBD69A",
"i.	c #FBD08C",
"j.	c #F7C475",
"k.	c #EFB564",
"l.	c #E29F4B",
"m.	c #C47B2A",
"n.	c #613D1B",
"o.	c #E09C4B",
"p.	c #FBD495",
"q.	c #FBD290",
"r.	c #FACE88",
"s.	c #F8C677",
"t.	c #F2BB6B",
"u.	c #E8A957",
"v.	c #DA913B",
"w.	c #975C1F",
"x.	c #593A1C",
"y.	c #F4C175",
"z.	c #FACB81",
"A.	c #E9AC5A",
"B.	c #E6AC65",
"C.	c #D58C3C",
"D.	c #95591C",
"E.	c #E6A653",
"F.	c #F7C375",
"G.	c #F6C172",
"H.	c #EEB564",
"I.	c #E7A956",
"J.	c #E4AC6F",
"K.	c #C27322",
"L.	c #B4681B",
"M.	c #EAAD5B",
"N.	c #EAAE5C",
"O.	c #E5A658",
"P.	c #E8B376",
"Q.	c #E1A768",
"R.	c #C27423",
"S.	c #B46619",
"T.	c #8F5F2F",
"U.	c #BFA07B",
"V.	c #E2AD70",
"W.	c #E3AA6A",
"X.	c #E0A463",
"Y.	c #D69144",
"Z.	c #C37826",
"`.	c #B76A1D",
" +	c #6E645B",
".+	c #535353",
"++	c #4B4B4B",
"@+	c #A1A1A1",
"#+	c #A6A6A6",
"$+	c #ACACAC",
"%+	c #A79E8F",
"&+	c #F0BF7D",
"*+	c #F3BE71",
"=+	c #E7AB5A",
"-+	c #CE8736",
";+	c #C2803B",
">+	c #B69E86",
",+	c #757575",
"'+	c #7B7B7B",
")+	c #696969",
"!+	c #4E4E4E",
"~+	c #969696",
"{+	c #A8A8A8",
"]+	c #BDBDBD",
"^+	c #BABABA",
"/+	c #838383",
"(+	c #F5D4A0",
"_+	c #F1CFA6",
":+	c #FDF8F3",
"<+	c #939393",
"[+	c #8B8B8B",
"}+	c #888888",
"|+	c #868686",
"1+	c #646464",
"2+	c #595959",
"3+	c #8C8C8C",
"4+	c #A7A7A7",
"5+	c #CCCCCC",
"6+	c #C7C7C7",
"7+	c #C0C0C0",
"8+	c #848484",
"9+	c #ECE7DF",
"0+	c #FDE5C0",
"a+	c #FDF7ED",
"b+	c #FFFFFF",
"c+	c #D4D4D4",
"d+	c #9A9A9A",
"e+	c #8D8D8D",
"f+	c #666666",
"g+	c #575757",
"h+	c #8F8F8F",
"i+	c #D1D1D1",
"j+	c #D5D5D5",
"k+	c #CDCDCD",
"l+	c #C3C3C3",
"m+	c #7D7D7D",
"n+	c #F1F1F1",
"o+	c #F9F9F9",
"p+	c #A3A3A3",
"q+	c #979797",
"r+	c #797979",
"s+	c #7C7C7C",
"t+	c #5E5E5E",
"u+	c #7E7E7E",
"v+	c #9C9C9C",
"w+	c #CFCFCF",
"x+	c #D2D2D2",
"y+	c #CBCBCB",
"z+	c #C2C2C2",
"A+	c #878787",
"B+	c #F6F6F6",
"C+	c #C9C9C9",
"D+	c #707070",
"E+	c #545454",
"F+	c #787878",
"G+	c #C6C6C6",
"H+	c #C4C4C4",
"I+	c #909090",
"J+	c #E8E8E8",
"K+	c #9F9F9F",
"L+	c #828282",
"M+	c #6E6E6E",
"N+	c #6D6D6D",
"O+	c #737373",
"P+	c #BCBCBC",
"Q+	c #BBBBBB",
"R+	c #FBFBFB",
"S+	c #ADADAD",
"T+	c #9E9E9E",
"U+	c #9B9B9B",
"V+	c #999999",
"W+	c #8A8A8A",
"X+	c #808080",
"Y+	c #767676",
"Z+	c #6C6C6C",
"`+	c #6F6F6F",
" @	c #505050",
".@	c #B4B4B4",
"+@	c #B3B3B3",
"@@	c #FDFDFD",
"#@	c #D6D6D6",
"$@	c #989898",
"%@	c #6B6B6B",
"&@	c #3F3F3F",
"*@	c #ABABAB",
"=@	c #F8F8F8",
"-@	c #9D9D9D",
";@	c #949494",
">@	c #626262",
",@	c #3A3A3A",
"'@	c #656565",
")@	c #A5A5A5",
"!@	c #C1C1C1",
"~@	c #747474",
"{@	c #616161",
"]@	c #4C4C4C",
"^@	c #383838",
"/@	c #A0A0A0",
"(@	c #777777",
"_@	c #5D5D5D",
":@	c #5A5A5A",
"<@	c #353535",
"[@	c #636363",
"}@	c #858585",
"|@	c #959595",
"1@	c #818181",
"2@	c #717171",
"3@	c #686868",
"4@	c #606060",
"5@	c #525252",
"6@	c #2D2D2D",
"7@	c #919191",
"8@	c #929292",
"9@	c #727272",
"0@	c #6A6A6A",
"a@	c #515151",
"b@	c #494949",
"c@	c #373737",
"d@	c #4D4D4D",
"e@	c #454545",
"f@	c #3D3D3D",
"g@	c #313131",
"h@	c #555555",
"i@	c #484848",
"j@	c #434343",
"                      . + @ # $ %                               ",
"                & * = - ; > , ' ) ! ~                           ",
"              { ] ^ / ( _ : < [ } | 1 2                         ",
"            3 4 5 6 7 8 9 0 a b c d e f                         ",
"            g h i j k l m n o p q r s t                         ",
"            u v w w x y z A B C D E F G H                       ",
"            I J K K L w M N O P Q R S T U                       ",
"            V W X Y Z `  ...+.@.#.$.%.T &.                      ",
"            *.=.-.;.>.,.'.).!.~.{.R ].^.                        ",
"            /.(._.:.<.`  .[.A @.}.|.1.2.                        ",
"              3.4.5.6.7.y 8.9.0.a.b.c.d.                        ",
"              e.f.f.g.h.i.!.j.k.l.m.n.&.                        ",
"              o.p.p.q.r.!.s.t.u.v.w.x.                          ",
"              /.y.z.!.9.j.t.A.B.C.D.                            ",
"                E.F.G.0.H.I.B.J.K.L.                            ",
"                /.M.N.a.O.P.Q.R.S.T.                            ",
"                  U.V.W.X.Y.Z.`.S. +.+++                        ",
"              @+#+$+%+&+*+=+-+;+>+,+'+)+!+                      ",
"            ~+{+]+^+/+(+z.H._+:+@+<+[+}+|+1+2+                  ",
"          3+4+5+6+7+8+9+0+a+b+c+d+~+e+/+/+8+f+g+                ",
"          h+i+j+k+l+m+n+b+b+o+p+d+q+e+/+r+s+s+t+                ",
"        u+v+w+x+y+z+A+B+b+b+C+v+d+q+e+/+r+D+s+)+E+              ",
"        F+p+G+6+H+]+I+o+b+J+K+v+d+~+3+L+F+M+,+N+.+              ",
"        O+{+P+]+Q+{+v+R+b+S+T+U+V+<+W+X+Y+Z+`+D+ @              ",
"        M+@+.@.@+@T+4+@@#@K+v+d+$@I+|+m+O+)+%@M+ @&@            ",
"        )+U+$+$+*@V++@=@#+-@U+V+;@[+L+r+`+f+>@Z+ @,@            ",
"        '@v+)@)@)@;@!@z+-@U+V+~+h+|+m+~@%@{@t+)+]@^@            ",
"          M+v+/@/@W+z+v+d+V+q+I+}+X+(@`+f+_@:@'@++<@            ",
"            [@}@v+L+K+d+V+|@h+}+1@r+2@3@4@g+5@{@++6@            ",
"              _@1+r+7@~+8@3+|+X+r+9@0@>@:@a@b@ @c@              ",
"                    2+>@N+M+9@D+0@'@t+E+d@e@f@g@                ",
"                          h@h@E+.+a@d@i@j@                      "};
