/* XPM */
static char * Blue_xpm[] = {
"32 32 24 1",
" 	c None",
".	c #067F86",
"+	c #08A2A9",
"@	c #089BA2",
"#	c #078D94",
"$	c #07868D",
"%	c #06787F",
"&	c #0CDCDC",
"*	c #08AFB5",
"=	c #0BD9D9",
"-	c #0BD7D9",
";	c #0ACBD0",
">	c #0AC6CB",
",	c #09C1C6",
"'	c #08A9AF",
")	c #0CDFE2",
"!	c #0CDCDF",
"~	c #07949B",
"{	c #0DE2E4",
"]	c #0EE7E9",
"^	c #09BBC1",
"/	c #0DE4E7",
"(	c #0AD0D4",
"_	c #10F3F5",
"                                ",
"                                ",
"                                ",
"                                ",
"                                ",
"        .+++@@##$$.%&           ",
"        *&=--;>,,*'+.)          ",
"        *!&=--;>,,*+,~{         ",
"        *)!&=--;>,,+=,~{        ",
"        *{)**''''~'+{=,+        ",
"        *{{)!&=--;>+]{=,*       ",
"        *{{{)!&=--;+++++%       ",
"        *{{,***'''''~~,*$       ",
"        ^/{{{{)!&=--(>,,$       ",
"        ^]/{{{{)!&=--(>,#       ",
"        ^]],,,,***''''(>#       ",
"        ^]]]/{{{{)!&=--(@       ",
"        ^]]]]/{{{{)!&=--@       ",
"        ^]],,,,,,,***'=-+       ",
"        ^]]]]]]/{{{{)!&=+       ",
"        ^_]]]]]]/{{{{)!&+       ",
"        ^__,,,,,,,,,,*)!*       ",
"        ^___]]]]]]/{{{{)*       ",
"        ^____]]]]]]/{{{{*       ",
"        ^_____]]]]]]/{{{*       ",
"        ^______]]]]]]/{{*       ",
"        ^^^^^^^^^^^^^^**^       ",
"                                ",
"                                ",
"                                ",
"                                ",
"                                "};
