/* XPM */
static char * Green_xpm[] = {
"32 32 40 1",
" 	c None",
".	c #119700",
"+	c #3DB100",
"@	c #33A800",
"#	c #11A300",
"$	c #119D00",
"%	c #119400",
"&	c #C9E500",
"*	c #4EB500",
"=	c #B4E400",
"-	c #AAE000",
";	c #9EDC00",
">	c #93D900",
",	c #7FD100",
"'	c #6FCB00",
")	c #57C300",
"!	c #3BBB00",
"~	c #1BB200",
"{	c #27AE00",
"]	c #119800",
"^	c #DEEC00",
"/	c #C3E900",
"(	c #15A500",
"_	c #ECF500",
":	c #C9EC00",
"<	c #5ABA00",
"[	c #D5F000",
"}	c #20BA00",
"|	c #11B300",
"1	c #11A700",
"2	c #DBF200",
"3	c #F6FB00",
"4	c #E4F500",
"5	c #25C400",
"6	c #69C000",
"7	c #EDF800",
"8	c #8AD400",
"9	c #F1FB00",
"0	c #FCFD00",
"a	c #FFFF7F",
"                                ",
"                                ",
"                                ",
"                                ",
"                                ",
"        .+++@@##$$.%&           ",
"        *=-;>,'))!~{]^          ",
"        */=-;>,'))!{)(_         ",
"        *:/=-;>,')){-)(_        ",
"        <[:}}||||1|{2-)+        ",
"        <2[:/=-;>,'{32-)<       ",
"        <42[:/=-;>,{{{{{%       ",
"        <445}}}|||||11)!$       ",
"        67442[:/=-;>8'))$       ",
"        697442[:/=-;>8')#       ",
"        6995555}}}||||8'#       ",
"        63997442[:/=-;>8@       ",
"        633997442[:/=-;>@       ",
"        6035555555}}}|-;+       ",
"        60033997442[:/=-+       ",
"        6a0033997442[:/=+       ",
"        6aa5555555555}:/*       ",
"        6aaa0033997442[:*       ",
"        6aaaa0033997442[*       ",
"        6aaaaa0033997442<       ",
"        6aaaaaa003399744<       ",
"        66666666666666<<6       ",
"                                ",
"                                ",
"                                ",
"                                ",
"                                "};
