/* XPM */
static char * Red_xpm[] = {
"32 32 15 1",
" 	c None",
".	c #FF0000",
"+	c #FF4E00",
"@	c #FF4700",
"#	c #FF2D00",
"$	c #FF1300",
"%	c #FF7B00",
"&	c #FF6800",
"*	c #FFB600",
"=	c #FF9500",
"-	c #FFA200",
";	c #FFDD00",
">	c #FFC900",
",	c #FFEA00",
"'	c #FFF77F",
"                                ",
"                                ",
"                                ",
"                                ",
"                                ",
"        ............+           ",
"        .@#$.........%          ",
"        .&@#$.........*         ",
"        .%&@#$......#..*        ",
"        .=%.........-#..        ",
"        .-=%&@#$....;-#..       ",
"        .*-=%&@#$........       ",
"        .**..............       ",
"        .>**-=%&@#$......       ",
"        .;>**-=%&@#$.....       ",
"        .;;..............       ",
"        .;;;>**-=%&@#$...       ",
"        .;;;;>**-=%&@#$..       ",
"        .,;...........#$.       ",
"        .,,;;;;>**-=%&@#.       ",
"        .',,;;;;>**-=%&@.       ",
"        .''...........%&.       ",
"        .''',,;;;;>**-=%.       ",
"        .'''',,;;;;>**-=.       ",
"        .''''',,;;;;>**-.       ",
"        .'''''',,;;;;>**.       ",
"        .................       ",
"                                ",
"                                ",
"                                ",
"                                ",
"                                "};
