/* XPM */
static char * Yellow_xpm[] = {
"32 32 30 1",
" 	c None",
".	c #FFDD00",
"+	c #FFE500",
"@	c #FFE300",
"#	c #FFE100",
"$	c #FFDF00",
"%	c #FFDC00",
"&	c #FFF500",
"*	c #FFE700",
"=	c #FFF400",
"-	c #FFF300",
";	c #FFF200",
">	c #FFEF00",
",	c #FFED00",
"'	c #FFEB00",
")	c #FFE800",
"!	c #FFE600",
"~	c #FFE400",
"{	c #FFDE00",
"]	c #FFF800",
"^	c #FFF700",
"/	c #FFE200",
"(	c #FFFA00",
"_	c #FFF900",
":	c #FFFC00",
"<	c #FFEA00",
"[	c #FFFB00",
"}	c #FFF000",
"|	c #FFFD00",
"1	c #FFFE58",
"                                ",
"                                ",
"                                ",
"                                ",
"                                ",
"        .+++@@##$$.%&           ",
"        *&=-;>,'')!~{]          ",
"        *^&=-;>,'')~'/(         ",
"        *]^&=-;>,''~='/(        ",
"        )_]))!!!!/!~_='+        ",
"        )__]^&=-;>,~:_=')       ",
"        )(__]^&=-;>~~~~~%       ",
"        )((')))!!!!!//')$       ",
"        <[((__]^&=-;},''$       ",
"        <:[((__]^&=-;},'#       ",
"        <::'''')))!!!!},#       ",
"        <:::[((__]^&=-;}@       ",
"        <::::[((__]^&=-;@       ",
"        <|:''''''')))!=-+       ",
"        <||::::[((__]^&=+       ",
"        <1||::::[((__]^&+       ",
"        <11'''''''''')]^*       ",
"        <111||::::[((__]*       ",
"        <1111||::::[((__*       ",
"        <11111||::::[((_)       ",
"        <111111||::::[(()       ",
"        <<<<<<<<<<<<<<))<       ",
"                                ",
"                                ",
"                                ",
"                                ",
"                                "};
